<?xml version="1.0" encoding="UTF-8"?>
<svg version="1.1" xmlns="http://www.w3.org/2000/svg" width="257" height="261">
<path d="M0 0 C84.81 0 169.62 0 257 0 C257 86.13 257 172.26 257 261 C172.19 261 87.38 261 0 261 C0 174.87 0 88.74 0 0 Z " fill="#FEFEFE" transform="translate(0,0)"/>
<path d="M0 0 C0.87529358 -0.00983917 1.75058716 -0.01967834 2.65240479 -0.02981567 C19.62965411 -0.18084017 36.51740683 -0.0719142 53.40625 1.80078125 C54.08421631 1.86647308 54.76218262 1.93216492 55.46069336 1.99984741 C64.29319246 2.88778278 69.71607002 4.53603251 75.65625 11.23828125 C76.41292969 11.97691406 77.16960937 12.71554688 77.94921875 13.4765625 C98.52430799 36.0031035 113.06557917 63.50554963 124.86230469 91.43505859 C125.67950513 93.37173057 125.67950513 93.37173057 127.0078125 95.6328125 C128.88077688 103.15851877 124.58743095 111.70090805 121.71875 118.55078125 C121.32469971 119.49791992 120.93064941 120.44505859 120.5246582 121.42089844 C111.24410308 143.27411586 99.12853719 163.37520933 83.96337891 181.64648438 C82.66852137 183.22333741 81.41861543 184.82939554 80.16796875 186.44140625 C74.21702236 193.69263917 69.85044214 196.01965449 60.65625 197.23828125 C59.23864837 197.50815512 57.82204071 197.78328156 56.40625 198.0625 C30.9575671 202.67874872 1.98796558 202.35017878 -23.34375 197.23828125 C-24.14055176 197.09737061 -24.93735352 196.95645996 -25.75830078 196.8112793 C-30.20004609 195.96112617 -33.21947846 195.27942619 -36.34375 191.80078125 C-36.99601562 191.08277344 -37.64828125 190.36476562 -38.3203125 189.625 C-38.98804688 188.83738281 -39.65578125 188.04976562 -40.34375 187.23828125 C-41.05273438 186.41972656 -41.76171875 185.60117188 -42.4921875 184.7578125 C-60.26551537 163.64808799 -73.4962943 140.13069804 -82.34375 113.98828125 C-82.63467529 113.13137695 -82.92560059 112.27447266 -83.2253418 111.39160156 C-86.08323333 102.5919622 -86.84593017 95.96219617 -83.96875 87.05078125 C-83.69836914 86.18855957 -83.42798828 85.32633789 -83.14941406 84.43798828 C-74.13611326 56.61934471 -59.85229867 31.94009871 -40.34375 10.23828125 C-39.88589111 9.69598877 -39.42803223 9.15369629 -38.95629883 8.5949707 C-35.30004239 4.52078615 -31.97399824 3.14069641 -26.53125 2.42578125 C-25.87060547 2.31814453 -25.20996094 2.21050781 -24.52929688 2.09960938 C-22.47078502 1.77479095 -20.41084904 1.50287516 -18.34375 1.23828125 C-17.66814529 1.15136017 -16.99254059 1.06443909 -16.29646301 0.97488403 C-10.85252461 0.32125719 -5.48059013 0.05122619 0 0 Z " fill="#FEFDFD" transform="translate(116.34375,25.76171875)"/>
<path d="M0 0 C0.87529358 -0.00983917 1.75058716 -0.01967834 2.65240479 -0.02981567 C19.62965411 -0.18084017 36.51740683 -0.0719142 53.40625 1.80078125 C54.08421631 1.86647308 54.76218262 1.93216492 55.46069336 1.99984741 C64.29319246 2.88778278 69.71607002 4.53603251 75.65625 11.23828125 C76.41292969 11.97691406 77.16960937 12.71554688 77.94921875 13.4765625 C98.52430799 36.0031035 113.06557917 63.50554963 124.86230469 91.43505859 C125.67950513 93.37173057 125.67950513 93.37173057 127.0078125 95.6328125 C128.88077688 103.15851877 124.58743095 111.70090805 121.71875 118.55078125 C121.32469971 119.49791992 120.93064941 120.44505859 120.5246582 121.42089844 C111.24410308 143.27411586 99.12853719 163.37520933 83.96337891 181.64648438 C82.66852137 183.22333741 81.41861543 184.82939554 80.16796875 186.44140625 C74.21702236 193.69263917 69.85044214 196.01965449 60.65625 197.23828125 C59.23864837 197.50815512 57.82204071 197.78328156 56.40625 198.0625 C30.9575671 202.67874872 1.98796558 202.35017878 -23.34375 197.23828125 C-24.14055176 197.09737061 -24.93735352 196.95645996 -25.75830078 196.8112793 C-30.20004609 195.96112617 -33.21947846 195.27942619 -36.34375 191.80078125 C-36.99601562 191.08277344 -37.64828125 190.36476562 -38.3203125 189.625 C-38.98804688 188.83738281 -39.65578125 188.04976562 -40.34375 187.23828125 C-41.05273438 186.41972656 -41.76171875 185.60117188 -42.4921875 184.7578125 C-60.26551537 163.64808799 -73.4962943 140.13069804 -82.34375 113.98828125 C-82.63467529 113.13137695 -82.92560059 112.27447266 -83.2253418 111.39160156 C-86.08323333 102.5919622 -86.84593017 95.96219617 -83.96875 87.05078125 C-83.69836914 86.18855957 -83.42798828 85.32633789 -83.14941406 84.43798828 C-74.13611326 56.61934471 -59.85229867 31.94009871 -40.34375 10.23828125 C-39.88589111 9.69598877 -39.42803223 9.15369629 -38.95629883 8.5949707 C-35.30004239 4.52078615 -31.97399824 3.14069641 -26.53125 2.42578125 C-25.87060547 2.31814453 -25.20996094 2.21050781 -24.52929688 2.09960938 C-22.47078502 1.77479095 -20.41084904 1.50287516 -18.34375 1.23828125 C-17.66814529 1.15136017 -16.99254059 1.06443909 -16.29646301 0.97488403 C-10.85252461 0.32125719 -5.48059013 0.05122619 0 0 Z M-39.50488281 51.828125 C-40.69196345 52.73845131 -41.89896826 53.62362156 -43.12792969 54.4765625 C-46.01642764 56.58984492 -47.26695863 57.99852804 -48.3671875 61.43359375 C-52.55912184 101.06142422 -52.55912184 101.06142422 -45.34375 139.23828125 C-31.47651162 154.24084909 -9.31975671 164.44702732 8.78125 173.36328125 C9.57515137 173.76627441 10.36905273 174.16926758 11.18701172 174.58447266 C15.7499736 176.77496683 18.64234281 177.90061021 23.65625 176.23828125 C26.20463946 175.11654231 28.63344815 173.96252214 31.09375 172.67578125 C31.79258301 172.31645508 32.49141602 171.95712891 33.21142578 171.58691406 C34.6600244 170.83960818 36.10663917 170.08844453 37.55126953 169.33349609 C39.49372683 168.32284155 41.44567432 167.33432879 43.40234375 166.3515625 C58.84169085 158.49187069 75.34575569 148.54877556 87.65625 136.23828125 C88.72463627 130.91205524 88.81670724 125.66124346 88.82421875 120.25390625 C88.82754715 119.39883484 88.83087555 118.54376343 88.83430481 117.66278076 C88.83934927 115.8541314 88.8417139 114.0454728 88.84155273 112.23681641 C88.84371032 109.53791831 88.86181176 106.83944937 88.88085938 104.140625 C88.91610191 93.05122716 88.24263456 82.22728532 86.88504028 71.2230835 C86.55012892 68.31765926 86.33637636 65.40262983 86.09375 62.48828125 C85.32475348 58.45383576 84.38964749 56.3702515 81.21875 53.73828125 C79.38753518 52.53590967 77.52847345 51.37574531 75.65625 50.23828125 C74.3163893 49.35291225 72.97938378 48.46321432 71.64453125 47.5703125 C26.52295077 17.79016751 3.52690438 18.66363673 -39.50488281 51.828125 Z " fill="#F5984A" transform="translate(116.34375,25.76171875)"/>
<path d="M0 0 C2.99563002 2.88792198 5.60490094 5.92749791 8.1875 9.1875 C12.47988815 14.48403827 17.09823695 19.27124035 22 24 C27 29 27 29 28.3984375 30.50390625 C43.61655209 46.50148524 64.50063579 58.92020343 84 69 C84.80308594 69.41717285 85.60617188 69.8343457 86.43359375 70.26416016 C88.98620143 71.57494557 91.55179018 72.85519085 94.125 74.125 C94.91922363 74.52823486 95.71344727 74.93146973 96.53173828 75.34692383 C101.09448892 77.53679103 103.98651035 78.66219053 109 77 C111.54838946 75.87826106 113.97719815 74.72424089 116.4375 73.4375 C117.48574951 72.89851074 117.48574951 72.89851074 118.55517578 72.34863281 C120.0037744 71.60132693 121.45038917 70.85016328 122.89501953 70.09521484 C124.83747683 69.0845603 126.78942432 68.09604754 128.74609375 67.11328125 C143.03229445 59.84062044 156.15392898 50.72047587 168.69140625 40.765625 C171 39 171 39 172 39 C170.7693732 54.50589768 167.50769126 69.09343848 162.67724609 83.85058594 C162.10218976 85.6756746 161.61367181 87.5276722 161.14453125 89.3828125 C160.38219917 92.03743082 159.74049099 93.85860939 158 96 C154.18265854 98.04798976 150.25567189 98.42795449 146 99 C144.57454135 99.27093824 143.15011015 99.54731905 141.7265625 99.828125 C116.28777493 104.44418018 87.32146732 104.10982945 62 99 C61.20319824 98.85908936 60.40639648 98.71817871 59.58544922 98.57299805 C55.14370391 97.72284492 52.12427154 97.04114494 49 93.5625 C48.34773438 92.84449219 47.69546875 92.12648438 47.0234375 91.38671875 C46.35570312 90.59910156 45.68796875 89.81148438 45 89 C44.29101562 88.18144531 43.58203125 87.36289063 42.8515625 86.51953125 C25.03924279 65.36349538 11.84004556 41.80760889 2.9375 15.625 C2.6381958 14.75133789 2.3388916 13.87767578 2.03051758 12.97753906 C0.57528971 8.51559524 -0.36410183 4.75656435 0 0 Z " fill="#5150A1" transform="translate(31,124)"/>
<path d="M0 0 C6.308605 3.85336413 9.29058698 9.3361866 11.16796875 16.32421875 C11.16796875 19.62421875 11.16796875 22.92421875 11.16796875 26.32421875 C-2.69203125 26.32421875 -16.55203125 26.32421875 -30.83203125 26.32421875 C-28.52454033 37.72285814 -28.52454033 37.72285814 -20.76953125 45.19921875 C-13.64841066 49.32700842 -4.23410009 49.75149347 3.7109375 47.65234375 C5.76151823 46.8000973 5.76151823 46.8000973 8.16796875 45.32421875 C9.15796875 46.64421875 10.14796875 47.96421875 11.16796875 49.32421875 C9.60955594 53.71047998 6.1702372 56.03330341 2.60546875 58.76171875 C1.97721191 59.24817871 1.34895508 59.73463867 0.70166016 60.23583984 C-8.58663025 67.31456001 -16.08614493 71.39538824 -28 70.0859375 C-37.45131021 68.42986722 -45.03586979 63.1996181 -51.0703125 55.85546875 C-57.55710658 46.53519698 -58.96380251 37.52875425 -57.83203125 26.32421875 C-56.3210385 17.96421788 -51.69794618 10.33118166 -45.08203125 5.01171875 C-32.56568395 -3.67014065 -14.12579166 -6.24162887 0 0 Z " fill="#8E2890" transform="translate(161.83203125,92.67578125)"/>
<path d="M0 0 C14.29438235 10.17100282 27.9845423 23.15647448 38.4765625 37.234375 C38.97929687 37.81703125 39.48203125 38.3996875 40 39 C40.66 39 41.32 39 42 39 C43.74154107 44.09222535 42.06723307 47.92102422 40.3125 52.75 C40.00143311 53.61616943 39.69036621 54.48233887 39.36987305 55.37475586 C30.50919838 79.22458039 18.11183837 101.32160917 2 121 C1.52079102 121.58604004 1.04158203 122.17208008 0.54785156 122.77587891 C-0.9391175 124.58670886 -2.43532364 126.38927065 -3.9375 128.1875 C-4.62888062 129.01773682 -4.62888062 129.01773682 -5.33422852 129.86474609 C-7.44409875 132.35094621 -9.26436042 134.17624028 -12 136 C-11.73388916 135.21036865 -11.73388916 135.21036865 -11.46240234 134.40478516 C-2.17134712 106.70065753 3.4618899 79.98814158 3.4375 50.75 C3.43781219 49.90325714 3.43812439 49.05651428 3.43844604 48.18411255 C3.40109325 34.88441538 3.24150957 20.95601268 0 8 C-0.12205329 5.32459184 -0.04467313 2.68038762 0 0 Z " fill="#FDD14F" transform="translate(201,83)"/>
<path d="M0 0 C-1.2306268 15.50589768 -4.49230874 30.09343848 -9.32275391 44.85058594 C-9.89781024 46.6756746 -10.38632819 48.5276722 -10.85546875 50.3828125 C-11.61780083 53.03743082 -12.25950901 54.85860939 -14 57 C-17.81734146 59.04798976 -21.74432811 59.42795449 -26 60 C-27.42545865 60.27093824 -28.84988985 60.54731905 -30.2734375 60.828125 C-56.89078337 65.65803826 -92.60154319 67.30369214 -118 57 C-118 56.67 -118 56.34 -118 56 C-117.05125 55.8040625 -116.1025 55.608125 -115.125 55.40625 C-74.22947544 46.57630153 -36.00469875 27.72657728 -3.30859375 1.765625 C-1 0 -1 0 0 0 Z " fill="#34B16A" transform="translate(203,163)"/>
<path d="M0 0 C1.29925106 3.89775317 0.39328348 5.12218978 -1.0625 8.9375 C-15.15693316 48.6490426 -14.95189438 91.60495743 -11 133 C-19.05010163 127.04309788 -26.55061461 120.94232388 -33.046875 113.27734375 C-35.5141385 110.40051451 -38.06370616 107.60555031 -40.625 104.8125 C-41.08052246 104.31331055 -41.53604492 103.81412109 -42.00537109 103.29980469 C-44.23477665 100.86904912 -46.29166408 98.78567692 -48.9609375 96.82421875 C-51 94 -51 94 -50.9909668 91.6105957 C-49.90626139 85.02625375 -47.76901012 78.73536793 -45.4375 72.5 C-45.08526367 71.5514917 -44.73302734 70.6029834 -44.37011719 69.62573242 C-36.42938432 48.65974897 -25.98875564 28.8219128 -11 12 C-10.18015625 11.071875 -9.3603125 10.14375 -8.515625 9.1875 C-5.73222802 6.0672588 -2.95698555 2.95698555 0 0 Z " fill="#EC5A9F" transform="translate(81,31)"/>
<path d="M0 0 C0.87561081 -0.00961258 1.75122162 -0.01922516 2.65336609 -0.02912903 C5.48770073 -0.053789 8.32182055 -0.06639222 11.15625 -0.07421875 C12.1226944 -0.07750183 13.08913879 -0.08078491 14.08486938 -0.08416748 C27.44155152 -0.09878711 40.58774593 0.44670379 53.84375 2.11328125 C54.90553467 2.24384415 54.90553467 2.24384415 55.98876953 2.37704468 C64.3354337 3.43104397 64.3354337 3.43104397 67.65625 4.23828125 C68.15125 5.22828125 68.15125 5.22828125 68.65625 6.23828125 C68.01300781 6.36356201 67.36976563 6.48884277 66.70703125 6.61791992 C53.74658923 9.16586702 41.1656947 11.98365655 28.65625 16.23828125 C27.62886719 16.55410156 26.60148437 16.86992188 25.54296875 17.1953125 C1.49638912 24.68000947 -20.51069568 38.77941996 -40.53442383 53.734375 C-45.2412469 57.23828125 -45.2412469 57.23828125 -46.34375 57.23828125 C-45.92315417 39.11442467 -40.06986756 21.27889228 -34.34375 4.23828125 C-31.86536318 3.75476775 -29.38615222 3.27640924 -26.90625 2.80078125 C-25.87467773 2.5987207 -25.87467773 2.5987207 -24.82226562 2.39257812 C-16.5602948 0.8170395 -8.40742376 0.07831853 0 0 Z " fill="#EF5A41" transform="translate(116.34375,25.76171875)"/>
<path d="M0 0 C2.99563002 2.88792198 5.60490094 5.92749791 8.1875 9.1875 C12.47988815 14.48403827 17.09823695 19.27124035 22 24 C27 29 27 29 28.6796875 30.71484375 C29.28039062 31.32457031 29.88109375 31.93429688 30.5 32.5625 C31.09167969 33.16320312 31.68335937 33.76390625 32.29296875 34.3828125 C34.09048305 36.16914184 34.09048305 36.16914184 36.8125 37.9375 C39.84743599 40.79901108 40.14836101 44.06272494 41 48 C41.15412354 48.69230713 41.30824707 49.38461426 41.46704102 50.09790039 C41.94294089 52.25137871 42.40882155 54.40689843 42.875 56.5625 C45.72010507 69.52056313 49.30979224 82.26093173 53 95 C31.32595918 86.06377816 15.86353926 47.82837681 7.453125 27.7265625 C5.7458779 23.34829977 4.14880253 18.94510069 2.625 14.5 C2.36187012 13.74605957 2.09874023 12.99211914 1.82763672 12.21533203 C0.42776117 8.00440848 -0.29895974 4.49863233 0 0 Z " fill="#5C3695" transform="translate(31,124)"/>
<path d="M0 0 C0.60502819 6.02052639 -1.52249045 10.63284588 -3.8125 16.0625 C-4.21557373 17.02768555 -4.61864746 17.99287109 -5.03393555 18.98730469 C-16.45055917 45.78377932 -32.14489893 69.72317564 -52 91 C-52.33 90.34 -52.66 89.68 -53 89 C-52.17159172 86.55694866 -51.27914041 84.20034193 -50.3125 81.8125 C-46.53728508 72.05059244 -43.5244946 62.37323696 -42.18359375 51.96875 C-41.96437256 50.36966797 -41.96437256 50.36966797 -41.74072266 48.73828125 C-41.46133267 46.625494 -41.21586924 44.50786196 -41.00927734 42.38671875 C-40.25221154 36.68865506 -39.30736108 33.64903137 -34.671875 30.0625 C-33.12412873 29.02725147 -31.5676373 28.00487379 -30 27 C-28.29151521 25.52394582 -26.59959559 24.0281016 -24.9375 22.5 C-22.01435344 19.82869376 -19.0750088 17.19485445 -16.0625 14.625 C-12.03662284 11.13535648 -8.31029449 7.36664797 -4.59204102 3.55517578 C-1.10219486 0 -1.10219486 0 0 0 Z " fill="#D8C531" transform="translate(242,128)"/>
<path d="M0 0 C1.29925106 3.89775317 0.39328348 5.12218978 -1.0625 8.9375 C-3.83294334 16.63273429 -5.55998516 24.50741225 -7.25 32.5 C-7.50789307 33.71679443 -7.76578613 34.93358887 -8.03149414 36.18725586 C-8.27375732 37.35264893 -8.51602051 38.51804199 -8.765625 39.71875 C-9.11028809 41.37414795 -9.11028809 41.37414795 -9.46191406 43.06298828 C-10.08785552 46.15397945 -10.08785552 46.15397945 -10.25 49.9609375 C-11.37014274 54.49984922 -14.15816027 56.32870095 -17.75 59.125 C-19.12445718 60.25503603 -20.49548411 61.38925546 -21.86328125 62.52734375 C-22.90282959 63.38755127 -22.90282959 63.38755127 -23.96337891 64.26513672 C-31.99071057 71.1030915 -39.22917019 78.80759753 -45.51171875 87.26953125 C-46.00285156 87.84058594 -46.49398437 88.41164063 -47 89 C-47.66 89 -48.32 89 -49 89 C-48.49041024 82.56642932 -47.31050644 77.13628163 -45 71.125 C-44.69022217 70.30837891 -44.38044434 69.49175781 -44.0612793 68.65039062 C-36.09237009 48.07274727 -25.74981628 28.55375065 -11 12 C-10.18015625 11.071875 -9.3603125 10.14375 -8.515625 9.1875 C-5.73222802 6.0672588 -2.95698555 2.95698555 0 0 Z " fill="#EB297E" transform="translate(81,31)"/>
<path d="M0 0 C9.08874382 3.29173059 18.1325558 5.78759399 27.60571289 7.70214844 C28.47446045 7.88036133 29.34320801 8.05857422 30.23828125 8.2421875 C31.00309814 8.39026855 31.76791504 8.53834961 32.5559082 8.69091797 C34.4375 9.25 34.4375 9.25 36.4375 11.25 C7.28522209 21.08366312 -37.7811601 22.9260663 -66.5625 11.25 C-66.5625 10.92 -66.5625 10.59 -66.5625 10.25 C-65.139375 9.95609375 -65.139375 9.95609375 -63.6875 9.65625 C-49.2533614 6.53393977 -34.89419118 2.20096177 -21.28515625 -3.55859375 C-13.69442929 -5.98794498 -7.13298711 -2.64882579 0 0 Z " fill="#0E9568" transform="translate(151.5625,208.75)"/>
<path d="M0 0 C22.32127686 17.36099311 37.17923607 45.89692916 49 71 C49.34111816 71.71945801 49.68223633 72.43891602 50.03369141 73.18017578 C51.05983233 75.36293573 52.06510402 77.55397464 53.0625 79.75 C53.37413086 80.41797607 53.68576172 81.08595215 54.00683594 81.77416992 C55.58810917 85.34305401 56.18347714 87.29247879 55 91 C54.23558594 90.09121094 53.47117188 89.18242188 52.68359375 88.24609375 C46.8330225 81.35408379 40.85249447 74.62253727 34.5 68.1875 C33.87609375 67.5490918 33.2521875 66.91068359 32.609375 66.25292969 C29.69902746 63.35613967 26.93142216 60.81710016 23.37109375 58.75 C17.10909491 55.06327448 14.06335941 52.17745998 12.03515625 45.1328125 C10.66809685 39.48183281 9.62517111 33.77895743 8.60302734 28.05712891 C7.81802401 24.07744804 6.67930275 20.31343554 5.3125 16.5 C4.71308594 14.81197266 4.71308594 14.81197266 4.1015625 13.08984375 C3.73804688 12.07019531 3.37453125 11.05054688 3 10 C1.9605236 6.67783342 0.96771118 3.3437175 0 0 Z " fill="#F59229" transform="translate(186,32)"/>
<path d="M0 0 C0.87561081 -0.00961258 1.75122162 -0.01922516 2.65336609 -0.02912903 C5.48770073 -0.053789 8.32182055 -0.06639222 11.15625 -0.07421875 C12.1226944 -0.07750183 13.08913879 -0.08078491 14.08486938 -0.08416748 C27.44155152 -0.09878711 40.58774593 0.44670379 53.84375 2.11328125 C54.90553467 2.24384415 54.90553467 2.24384415 55.98876953 2.37704468 C64.3354337 3.43104397 64.3354337 3.43104397 67.65625 4.23828125 C68.15125 5.22828125 68.15125 5.22828125 68.65625 6.23828125 C68.01300781 6.36356201 67.36976563 6.48884277 66.70703125 6.61791992 C52.76109095 9.35961022 39.29892417 12.45990612 25.89453125 17.21875 C24.72470703 17.63060547 24.72470703 17.63060547 23.53125 18.05078125 C22.90992188 18.28410156 22.28859375 18.51742187 21.6484375 18.7578125 C16.5218493 19.99422495 12.66001545 19.09439735 7.90625 17.05078125 C-3.81923889 12.34191029 -16.00229655 9.17850247 -28.48168945 7.22607422 C-30.11356448 6.95769997 -31.73130916 6.60580729 -33.34375 6.23828125 C-33.67375 5.57828125 -34.00375 4.91828125 -34.34375 4.23828125 C-31.86536318 3.75476775 -29.38615222 3.27640924 -26.90625 2.80078125 C-26.21853516 2.66607422 -25.53082031 2.53136719 -24.82226562 2.39257812 C-16.5602948 0.8170395 -8.40742376 0.07831853 0 0 Z " fill="#F27C2A" transform="translate(116.34375,25.76171875)"/>
<path d="M0 0 C3.63417034 0.02609817 4.16324437 0.30485715 7.1875 2.75 C11.0493556 7.66508895 10.32892653 11.21873086 10.25 17.375 C3.98 17.375 -2.29 17.375 -8.75 17.375 C-9.12387648 10.45828516 -9.26356426 6.7092123 -4.75 1.375 C-3.75 0.375 -3.75 0.375 0 0 Z " fill="#FDFCFD" transform="translate(139.75,95.625)"/>
<path d="M0 0 C0.33 0.99 0.66 1.98 1 3 C-0.94032528 4.94032528 -2.92398243 6.49198696 -5.125 8.125 C-5.84945312 8.66382813 -6.57390625 9.20265625 -7.3203125 9.7578125 C-7.87460938 10.16773438 -8.42890625 10.57765625 -9 11 C-7.59155282 7.78475695 -5.89655214 5.67816132 -3.375 3.25 C-2.74335937 2.63640625 -2.11171875 2.0228125 -1.4609375 1.390625 C-0.73777344 0.70226562 -0.73777344 0.70226562 0 0 Z " fill="#EC447D" transform="translate(81,31)"/>
</svg>
